<svg width="512" height="512" xmlns="http://www.w3.org/2000/svg">

 <g>
  <title>Layer 1</title>
  <g id="svg_22">
   <g id="svg_16">
    <path transform="rotate(90 129.311 256)" stroke="#000" id="svg_9" d="m2.00002,256.0002l254.62194,0m-254.62194,-0.00002l127.31133,-127.06201l127.31066,127.06201l-127.31066,127.06166l-127.31133,-127.06166z" fill="#619E73"/>
    <path stroke="#000" id="svg_10" d="m128.18902,129.06207l254.62194,0m-254.62194,-0.00002l127.31134,-127.06202l127.31065,127.06202l-127.31065,127.06166l-127.31134,-127.06166z" fill="#7DD8B5"/>
    <path stroke="#000" id="svg_11" d="m128.43301,382.93834l254.62194,0m-254.62194,-0.00002l127.31134,-127.06202l127.31065,127.06202l-127.31065,127.06166l-127.31134,-127.06166z" fill="#0C372C"/>
    <path transform="rotate(90 382.689 256)" stroke="#000" id="svg_12" d="m255.37803,256.00021l254.62194,0m-254.62194,-0.00002l127.31134,-127.06202l127.31065,127.06202l-127.31065,127.06166l-127.31134,-127.06166z" fill="#619E73"/>
   </g>
   <path transform="rotate(90 256 330.079)" id="svg_18" d="m270.99999,316.08366l-13.9992,13.99589l13.9992,13.99588l-8.0004,8.00327l-21.99959,-21.99915l21.99959,-22.00083" stroke="#000" fill="#619E73"/>
   <path id="svg_19" d="m346.99999,242.00495l-13.9992,13.99589l13.9992,13.99588l-8.0004,8.00327l-21.99958,-21.99915l21.99958,-22.00083" stroke="#000" fill="#7DD8B5"/>
   <path transform="rotate(-90 256 180.079)" id="svg_20" d="m271,166.08366l-13.9992,13.99589l13.9992,13.99588l-8.0004,8.00327l-21.99958,-21.99915l21.99958,-22.00083" stroke="#000" fill="#306856"/>
   <path transform="rotate(180 183 256)" id="svg_21" d="m197.99999,242.00495l-13.9992,13.99589l13.9992,13.99588l-8.0004,8.00327l-21.99958,-21.99915l21.99958,-22.00083" stroke="#000" fill="#7DD8B5"/>
  </g>
 </g>
</svg>