<svg id="visual" viewBox="0 0 900 300" width="900" height="300" xmlns="http://www.w3.org/2000/svg" xmlns:xlink="http://www.w3.org/1999/xlink" version="1.1"><path d="M0 52L18.8 53C37.7 54 75.3 56 112.8 55.5C150.3 55 187.7 52 225.2 52.5C262.7 53 300.3 57 337.8 60C375.3 63 412.7 65 450.2 62.5C487.7 60 525.3 53 562.8 49C600.3 45 637.7 44 675.2 39C712.7 34 750.3 25 787.8 25C825.3 25 862.7 34 881.3 38.5L900 43L900 0L881.3 0C862.7 0 825.3 0 787.8 0C750.3 0 712.7 0 675.2 0C637.7 0 600.3 0 562.8 0C525.3 0 487.7 0 450.2 0C412.7 0 375.3 0 337.8 0C300.3 0 262.7 0 225.2 0C187.7 0 150.3 0 112.8 0C75.3 0 37.7 0 18.8 0L0 0Z" fill="#7ad6ca"></path><path d="M0 121L18.8 127.5C37.7 134 75.3 147 112.8 152.5C150.3 158 187.7 156 225.2 146C262.7 136 300.3 118 337.8 117C375.3 116 412.7 132 450.2 140C487.7 148 525.3 148 562.8 151.5C600.3 155 637.7 162 675.2 151.5C712.7 141 750.3 113 787.8 104C825.3 95 862.7 105 881.3 110L900 115L900 41L881.3 36.5C862.7 32 825.3 23 787.8 23C750.3 23 712.7 32 675.2 37C637.7 42 600.3 43 562.8 47C525.3 51 487.7 58 450.2 60.5C412.7 63 375.3 61 337.8 58C300.3 55 262.7 51 225.2 50.5C187.7 50 150.3 53 112.8 53.5C75.3 54 37.7 52 18.8 51L0 50Z" fill="#67b9ab"></path><path d="M0 148L18.8 158C37.7 168 75.3 188 112.8 198.5C150.3 209 187.7 210 225.2 201C262.7 192 300.3 173 337.8 166.5C375.3 160 412.7 166 450.2 168.5C487.7 171 525.3 170 562.8 172C600.3 174 637.7 179 675.2 174C712.7 169 750.3 154 787.8 151C825.3 148 862.7 157 881.3 161.5L900 166L900 113L881.3 108C862.7 103 825.3 93 787.8 102C750.3 111 712.7 139 675.2 149.5C637.7 160 600.3 153 562.8 149.5C525.3 146 487.7 146 450.2 138C412.7 130 375.3 114 337.8 115C300.3 116 262.7 134 225.2 144C187.7 154 150.3 156 112.8 150.5C75.3 145 37.7 132 18.8 125.5L0 119Z" fill="#549d8d"></path><path d="M0 274L18.8 275.5C37.7 277 75.3 280 112.8 275.5C150.3 271 187.7 259 225.2 252.5C262.7 246 300.3 245 337.8 241.5C375.3 238 412.7 232 450.2 238C487.7 244 525.3 262 562.8 261C600.3 260 637.7 240 675.2 238C712.7 236 750.3 252 787.8 254C825.3 256 862.7 244 881.3 238L900 232L900 164L881.3 159.5C862.7 155 825.3 146 787.8 149C750.3 152 712.7 167 675.2 172C637.7 177 600.3 172 562.8 170C525.3 168 487.7 169 450.2 166.5C412.7 164 375.3 158 337.8 164.5C300.3 171 262.7 190 225.2 199C187.7 208 150.3 207 112.8 196.5C75.3 186 37.7 166 18.8 156L0 146Z" fill="#428271"></path><path d="M0 301L18.8 301C37.7 301 75.3 301 112.8 301C150.3 301 187.7 301 225.2 301C262.7 301 300.3 301 337.8 301C375.3 301 412.7 301 450.2 301C487.7 301 525.3 301 562.8 301C600.3 301 637.7 301 675.2 301C712.7 301 750.3 301 787.8 301C825.3 301 862.7 301 881.3 301L900 301L900 230L881.3 236C862.7 242 825.3 254 787.8 252C750.3 250 712.7 234 675.2 236C637.7 238 600.3 258 562.8 259C525.3 260 487.7 242 450.2 236C412.7 230 375.3 236 337.8 239.5C300.3 243 262.7 244 225.2 250.5C187.7 257 150.3 269 112.8 273.5C75.3 278 37.7 275 18.8 273.5L0 272Z" fill="#306856"></path></svg>