<svg id="visual" viewBox="0 0 900 600" width="900" height="600" xmlns="http://www.w3.org/2000/svg" xmlns:xlink="http://www.w3.org/1999/xlink" version="1.1"><rect x="0" y="0" width="900" height="600" fill="#fff"></rect><path d="M0 409L129 430L257 389L386 436L514 373L643 382L771 406L900 430L900 601L771 601L643 601L514 601L386 601L257 601L129 601L0 601Z" fill="#7ad6ca"></path><path d="M0 465L129 456L257 464L386 398L514 472L643 409L771 445L900 462L900 601L771 601L643 601L514 601L386 601L257 601L129 601L0 601Z" fill="#67b9ab"></path><path d="M0 484L129 470L257 507L386 438L514 464L643 509L771 485L900 505L900 601L771 601L643 601L514 601L386 601L257 601L129 601L0 601Z" fill="#549d8d"></path><path d="M0 514L129 527L257 533L386 537L514 509L643 540L771 480L900 485L900 601L771 601L643 601L514 601L386 601L257 601L129 601L0 601Z" fill="#428271"></path><path d="M0 538L129 568L257 538L386 532L514 542L643 531L771 549L900 547L900 601L771 601L643 601L514 601L386 601L257 601L129 601L0 601Z" fill="#306856"></path></svg>