<svg width="512" height="279" xmlns="http://www.w3.org/2000/svg">
 <defs>
  <filter id="svg_1_blur">
   <feGaussianBlur in="SourceGraphic" stdDeviation="0"/>
  </filter>
 </defs>
 <g>
  <title>Layer 1</title>
  <g stroke="null" id="svg_11">
   <path stroke="#000" fill="#559E84" d="m165.84528,48.65525l0,157.76912l0,0c0,20.66819 -15.6583,37.42306 -34.97379,37.42306c-19.31549,0 -34.97384,-16.75487 -34.97384,-37.42306l0,-157.76912l0,0c0,-20.66819 15.65835,-37.42306 34.97384,-37.42306c19.31549,0 34.97379,16.75487 34.97379,37.42306z" id="svg_6"/>
   <path stroke="#000" fill="#306856" d="m42.84131,208.2273l176.06021,0l0,0c23.06436,0 41.76175,15.21602 41.76175,33.98594c0,18.76992 -18.69739,33.98599 -41.76175,33.98599l-176.06021,0l0,0c-23.06436,0 -41.76175,-15.21607 -41.76175,-33.98599c0,-18.76992 18.69739,-33.98594 41.76175,-33.98594z" id="svg_7"/>
   <path stroke="#000" fill="#7AD6CA" d="m44.42278,1.29034l172.89741,0l0,0c22.65004,0 41.01149,15.21602 41.01149,33.98594c0,18.76992 -18.36145,33.98594 -41.01149,33.98594l-172.89741,0l0,0c-22.65004,0 -41.01149,-15.21602 -41.01149,-33.98594c0,-18.76992 18.3615,-33.98594 41.01149,-33.98594z" id="svg_1" filter="url(#svg_1_blur)"/>
   <path stroke="#000" fill="#559E84" d="m391.23223,44.30258l0,181.33205l0,0c0,23.75498 -15.6583,43.01221 -34.97379,43.01221c-19.31549,0 -34.97384,-19.25723 -34.97384,-43.01221l0,-181.33205l0,0c0,-23.75498 15.65835,-43.01221 34.97384,-43.01221c19.31549,0 34.97379,19.25723 34.97379,43.01221z" id="svg_8"/>
   <path stroke="#000" fill="#306856" d="m351.79305,209.73773l128.61885,0l0,0c16.84942,0 30.50856,15.21602 30.50856,33.98594c0,18.76992 -13.65915,33.98599 -30.50856,33.98599l-128.61885,0l0,0c-16.84942,0 -30.50856,-15.21607 -30.50856,-33.98599c0,-18.76992 13.65915,-33.98594 30.50856,-33.98594z" id="svg_9"/>
  </g>
 </g>
</svg>